<svg xmlns="http://www.w3.org/2000/svg" viewBox="0 0 300 300" role="img" aria-labelledby="title desc">
  <title id="title">najembezkary.pl</title>
  <desc id="desc">Profesjonalny sygnet w kolorach granatowym, czerwonym i białym z motywem domu.</desc>

  <defs>
    <linearGradient id="navy" x1="0" y1="0" x2="1" y2="1">
      <stop offset="0%" stop-color="#143a6f" />
      <stop offset="100%" stop-color="#0d274d" />
    </linearGradient>
    <path id="arcTop" d="M 52 150 A 98 98 0 0 1 248 150" />
    <path id="arcBottom" d="M 48 164 A 102 102 0 0 0 252 164" />
  </defs>

  <circle cx="150" cy="150" r="138" fill="url(#navy)" />
  <circle cx="150" cy="150" r="116" fill="none" stroke="#ffffff" stroke-width="2.25" opacity="0.88" />
  <circle cx="150" cy="150" r="132" fill="none" stroke="#c0392b" stroke-width="8" />

  <g transform="translate(0,8)">
    <path d="M 85 145 L 150 88 L 215 145" fill="none" stroke="#ffffff" stroke-width="10" stroke-linecap="round" stroke-linejoin="round"/>
    <rect x="97" y="144" width="106" height="76" rx="10" fill="#ffffff" />
    <rect x="137" y="168" width="26" height="52" rx="4" fill="#143a6f" />
    <rect x="110" y="158" width="18" height="16" rx="2.5" fill="#dbe8f7" />
    <rect x="172" y="158" width="18" height="16" rx="2.5" fill="#dbe8f7" />
    <path d="M 220 116 C 233 126 236 145 226 158 C 218 168 203 171 191 164" fill="none" stroke="#c0392b" stroke-width="7" stroke-linecap="round"/>
  </g>

  <text fill="#ffffff" font-size="16" font-family="Inter, Arial, sans-serif" font-weight="700" letter-spacing="1.7">
    <textPath href="#arcTop" startOffset="50%" text-anchor="middle">NAJEMBEZKARY.PL</textPath>
  </text>
  <text fill="#ffffff" font-size="11" font-family="Inter, Arial, sans-serif" font-weight="600" letter-spacing="1.4" opacity="0.95">
    <textPath href="#arcBottom" startOffset="50%" text-anchor="middle">DOKUMENTY NAJMU</textPath>
  </text>
</svg>
